<?xml version="1.0" encoding="UTF-8" standalone="no"?>
<svg
   version="1.0"
   viewBox="0 0 1000 1000"
   width="300"
   height="300"
   xmlns="http://www.w3.org/2000/svg"
   xmlns:svg="http://www.w3.org/2000/svg">
  <style
     id="style1859">.st0{fill:#f01414}.st1{fill:#fff}</style>
  <g
     id="logo"
     transform="matrix(1.180112,0,0,1.180112,440.9944,205.36263)">
    <path
       class="st0"
       d="M 90,0 H 10 C 4.5,0 0,4.5 0,10 v 50 c 0,5.5 4.5,10 10,10 h 80 c 5.5,0 10,-4.5 10,-10.1 V 10 C 100,4.5 95.5,0 90,0 Z"
       id="D" />
    <path
       class="st1"
       d="m 92.7,59.9 c 0.1,1.5 -1.1,2.8 -2.7,2.9 H 10 C 8.5,62.8 7.3,61.5 7.3,60 V 10 C 7.2,8.5 8.4,7.2 9.9,7.1 H 90 c 1.5,0 2.7,1.3 2.7,2.8 z"
       id="B" />
    <path
       class="st0"
       d="M 30.6,57.9 H 13.8 V 12.1 h 16.8 c 11.9,0 18.4,7.4 18.4,22.7 0,13.2 -4.5,23 -18.4,23.1 z m 7.3,-22.2 c 0,-9.2 -1,-16.4 -10.9,-16.4 h -2.2 v 31.2 h 3.9 c 5.8,0 9.2,-4.7 9.2,-14.8 z M 78,33.9 C 82.7,32.5 85.9,28.2 86,23.2 86,22.2 85.8,12 72.9,12 H 53.8 V 57.8 H 70 c 4.3,0 17.7,0 17.7,-12.9 0,-3.1 -1.4,-9.2 -9.7,-11 z M 64.7,19.2 h 3.5 c 4.9,0 6.9,1.7 6.9,5.5 0,3 -2.2,5.5 -6,5.5 h -4.3 v -11 z m 4.5,31.3 H 64.7 V 38.7 h 4.8 c 5.7,0 7.1,3.3 7.1,5.9 0,5.9 -5.6,5.9 -7.4,5.9 z"
       id="border" />
  </g>
</svg>
