<?xml version="1.0" encoding="UTF-8" standalone="no"?>

<svg
   xmlns:svg="http://www.w3.org/2000/svg"
   xmlns="http://www.w3.org/2000/svg"
   version="1.0"
   viewBox="0 0 1000 1000"
   width="300"
   height="300"
   id="svg2">
  <defs
     id="defs4" />
  <path
     d="M 980,500 A 480,480 0 1 1 20,500 A 480,480 0 1 1 980,500 z"
     id="face"
     style="fill:#ffffff" />
  <path
     d="M 482.5,50 L 517.5,50 L 517.5,187 L 482.5,187 L 482.5,50 z M 710.71058,102.03857 L 739.28942,118.53857 L 684.28942,213.80136 L 655.71058,197.30136 L 710.71058,102.03857 z M 881.46143,260.71058 L 897.96143,289.28942 L 802.69864,344.28942 L 786.19864,315.71058 L 881.46143,260.71058 z M 539.08163,51.628938 L 554.99398,53.301394 L 550.39473,97.060358 L 534.48238,95.387902 L 539.08163,51.628938 z M 585.73508,58.170325 L 601.38544,61.496913 L 592.23732,104.53541 L 576.58696,101.20882 L 585.73508,58.170325 z M 631.44919,69.552492 L 646.66609,74.496766 L 633.06934,116.34325 L 617.85244,111.39898 L 631.44919,69.552492 z M 675.72311,85.650733 L 690.33984,92.158522 L 672.44342,132.35452 L 657.8267,125.84673 L 675.72311,85.650733 z M 758.03121,131.24008 L 770.97549,140.64465 L 745.11294,176.2414 L 732.16867,166.83683 L 758.03121,131.24008 z M 795.16359,160.23182 L 807.05391,170.93791 L 777.61216,203.63628 L 765.72184,192.93019 L 795.16359,160.23182 z M 829.06209,192.94612 L 839.76818,204.83643 L 807.0698,234.27818 L 796.36372,222.38786 L 829.06209,192.94612 z M 859.35531,229.02456 L 868.75988,241.96884 L 833.16312,267.83138 L 823.75857,254.88711 L 859.35531,229.02456 z M 907.84154,309.66015 L 914.34933,324.27689 L 874.15333,342.1733 L 867.64555,327.55657 L 907.84154,309.66015 z M 925.50326,353.33392 L 930.44753,368.55083 L 888.60104,382.14757 L 883.65677,366.93067 L 925.50326,353.33392 z M 938.50307,398.61459 L 941.82966,414.26494 L 898.79116,423.41306 L 895.46458,407.7627 L 938.50307,398.61459 z M 946.69855,445.00604 L 948.371,460.9184 L 904.61203,465.51764 L 902.93959,449.6053 L 946.69855,445.00604 z M 950,482.5 L 950,517.5 L 813,517.5 L 813,482.5 L 950,482.5 z M 897.96143,710.71058 L 881.46143,739.28942 L 786.19864,684.28942 L 802.69864,655.71058 L 897.96143,710.71058 z M 739.28942,881.46143 L 710.71058,897.96143 L 655.71058,802.69864 L 684.28942,786.19864 L 739.28942,881.46143 z M 948.37106,539.08163 L 946.69861,554.99398 L 902.93964,550.39473 L 904.6121,534.48238 L 948.37106,539.08163 z M 941.82967,585.73508 L 938.50309,601.38544 L 895.46459,592.23732 L 898.79118,576.58696 L 941.82967,585.73508 z M 930.44751,631.44919 L 925.50323,646.66609 L 883.65675,633.06934 L 888.60102,617.85244 L 930.44751,631.44919 z M 914.34927,675.72311 L 907.84148,690.33984 L 867.64548,672.44342 L 874.15327,657.8267 L 914.34927,675.72311 z M 868.75992,758.03121 L 859.35535,770.97549 L 823.7586,745.11294 L 833.16317,732.16867 L 868.75992,758.03121 z M 839.76818,795.16359 L 829.06209,807.05391 L 796.36372,777.61216 L 807.06981,765.72184 L 839.76818,795.16359 z M 807.05388,829.06209 L 795.16357,839.76818 L 765.72182,807.0698 L 777.61214,796.36372 L 807.05388,829.06209 z M 770.97544,859.35531 L 758.03116,868.75988 L 732.16862,833.16312 L 745.11289,823.75857 L 770.97544,859.35531 z M 690.33985,907.84154 L 675.72311,914.34933 L 657.8267,874.15333 L 672.44343,867.64555 L 690.33985,907.84154 z M 646.66608,925.50326 L 631.44917,930.44753 L 617.85243,888.60104 L 633.06933,883.65677 L 646.66608,925.50326 z M 601.38541,938.50307 L 585.73506,941.82966 L 576.58694,898.79116 L 592.2373,895.46458 L 601.38541,938.50307 z M 554.99396,946.69855 L 539.0816,948.371 L 534.48236,904.61203 L 550.3947,902.93959 L 554.99396,946.69855 z M 517.49998,950.00002 L 482.49998,950.00002 L 482.49998,813.00002 L 517.49998,813.00002 L 517.49998,950.00002 z M 289.2894,897.96145 L 260.71056,881.46145 L 315.71056,786.19866 L 344.2894,802.69866 L 289.2894,897.96145 z M 118.53855,739.28944 L 102.03855,710.7106 L 197.30134,655.7106 L 213.80134,684.28944 L 118.53855,739.28944 z M 460.91835,948.37108 L 445.006,946.69863 L 449.60525,902.93966 L 465.5176,904.61212 L 460.91835,948.37108 z M 414.2649,941.82969 L 398.61454,938.50311 L 407.76266,895.46461 L 423.41302,898.7912 L 414.2649,941.82969 z M 368.55079,930.44753 L 353.33389,925.50325 L 366.93064,883.65677 L 382.14754,888.60104 L 368.55079,930.44753 z M 324.27687,914.34929 L 309.66014,907.8415 L 327.55656,867.6455 L 342.17328,874.15329 L 324.27687,914.34929 z M 241.96877,868.75994 L 229.02449,859.35537 L 254.88704,823.75862 L 267.83131,833.16319 L 241.96877,868.75994 z M 204.83639,839.7682 L 192.94607,829.06211 L 222.38782,796.36374 L 234.27814,807.06983 L 204.83639,839.7682 z M 170.93789,807.0539 L 160.2318,795.16359 L 192.93018,765.72184 L 203.63626,777.61216 L 170.93789,807.0539 z M 140.64467,770.97546 L 131.2401,758.03118 L 166.83686,732.16864 L 176.24141,745.11291 L 140.64467,770.97546 z M 92.15844,690.33987 L 85.65065,675.72313 L 125.84665,657.82672 L 132.35443,672.44345 L 92.15844,690.33987 z M 74.49672,646.6661 L 69.55245,631.44919 L 111.39894,617.85245 L 116.34321,633.06935 L 74.49672,646.6661 z M 61.49691,601.38543 L 58.17032,585.73508 L 101.20882,576.58696 L 104.5354,592.23732 L 61.49691,601.38543 z M 53.30143,554.99398 L 51.62898,539.08162 L 95.38795,534.48238 L 97.06039,550.39472 L 53.30143,554.99398 z M 49.99996,517.5 L 49.99996,482.5 L 186.99996,482.5 L 186.99996,517.5 L 49.99996,517.5 z M 102.03853,289.28942 L 118.53853,260.71058 L 213.80132,315.71058 L 197.30132,344.28942 L 102.03853,289.28942 z M 260.71054,118.53857 L 289.28938,102.03857 L 344.28938,197.30136 L 315.71054,213.80136 L 260.71054,118.53857 z M 51.6289,460.91837 L 53.30135,445.00602 L 97.06032,449.60527 L 95.38786,465.51762 L 51.6289,460.91837 z M 58.17029,414.26492 L 61.49687,398.61456 L 104.53537,407.76268 L 101.20878,423.41304 L 58.17029,414.26492 z M 69.55245,368.55081 L 74.49673,353.33391 L 116.34321,366.93066 L 111.39894,382.14756 L 69.55245,368.55081 z M 85.65069,324.27689 L 92.15848,309.66016 L 132.35448,327.55658 L 125.84669,342.1733 L 85.65069,324.27689 z M 131.24004,241.96879 L 140.64461,229.02451 L 176.24136,254.88706 L 166.83679,267.83133 L 131.24004,241.96879 z M 160.23178,204.83641 L 170.93787,192.94609 L 203.63624,222.38784 L 192.93015,234.27816 L 160.23178,204.83641 z M 192.94608,170.93791 L 204.83639,160.23182 L 234.27814,192.9302 L 222.38782,203.63628 L 192.94608,170.93791 z M 229.02452,140.64469 L 241.9688,131.24012 L 267.83134,166.83688 L 254.88707,176.24143 L 229.02452,140.64469 z M 309.66011,92.15846 L 324.27685,85.65067 L 342.17326,125.84667 L 327.55653,132.35445 L 309.66011,92.15846 z M 353.33388,74.49674 L 368.55079,69.55247 L 382.14753,111.39896 L 366.93063,116.34323 L 353.33388,74.49674 z M 398.61455,61.49693 L 414.2649,58.17034 L 423.41302,101.20884 L 407.76266,104.53542 L 398.61455,61.49693 z M 445.006,53.30145 L 460.91836,51.629 L 465.5176,95.38797 L 449.60526,97.06041 L 445.006,53.30145 z"
     id="dial" />
</svg>
