<?xml version="1.0" encoding="UTF-8" standalone="no"?>
<!-- Created with Inkscape (http://www.inkscape.org/) -->

<svg
   version="1.0"
   viewBox="0 0 1000 1000"
   width="300"
   height="300"
   xmlns="http://www.w3.org/2000/svg"
   xmlns:svg="http://www.w3.org/2000/svg">
  <defs
     id="defs4" />
  <path
     d="m 500,70 -3.5,4 -1.875,137.28125 C 468.44409,213.97446 448,236.11131 448,263 c 0,26.40163 19.72095,48.19968 45.21875,51.53125 L 489,626 h 22 L 506.78125,314.53125 C 532.27905,311.19968 552,289.40163 552,263 552,236.11131 531.55591,213.97446 505.375,211.28125 L 503.5,74 Z m 0,169 c 13.248,0 24,10.752 24,24 0,13.248 -10.752,24 -24,24 -13.248,0 -24,-10.752 -24,-24 0,-13.248 10.752,-24 24,-24 z"
     id="seconds"
     style="fill:#ee0000" />
</svg>
