<?xml version="1.0" encoding="UTF-8" standalone="no"?>
<svg
   version="1.0"
   viewBox="0 0 1000 1000"
   width="300"
   height="300"
   xmlns="http://www.w3.org/2000/svg"
   xmlns:svg="http://www.w3.org/2000/svg">
  <defs
     id="defs4" />
  <path
     id="seconds"
     style="fill:#ee0000"
     d="M 500 70 L 496.4974 73.997396 L 494.6224 211.28255 C 468.44151 213.97576 448.0013 236.11264 448.0013 263.0013 C 448.0013 289.40291 467.71837 311.19968 493.21615 314.53125 L 488.9974 526.0026 L 511.0026 526.0026 L 506.78385 314.53125 C 532.28163 311.19968 551.9987 289.40291 551.9987 263.0013 C 551.9987 236.11264 531.55849 213.97576 505.3776 211.28255 L 503.5026 73.997396 L 500 70 z M 499.82422 222.84505 A 39.396488 39.997963 0 0 1 539.21875 262.84505 A 39.396488 39.997963 0 0 1 499.82422 302.83854 A 39.396488 39.997963 0 0 1 460.42969 262.84505 A 39.396488 39.997963 0 0 1 499.82422 222.84505 z " />
</svg>
